#!OML:ASF H:\Dans Jumps\Project 1\Capture day 1\Session 1\subject.ASF
:FULLY-SPECIFIED
:DEGREES
85
root 0.58371 17.0795 -15.0887 11.8372 -1.96574 -2.1529
lowerback 5.78118 -0.47927 0.0426816
upperback 6.48693 -0.685654 1.93417
thorax 3.48417 -0.391073 1.99127
lowerneck -14.195 1.25089 -1.1378
upperneck 25.4028 2.19014 -0.57335
head 10.4725 0.815737 0.273679
rclavicle -2.38542e-015 -3.97569e-016
rhumerus -33.7779 -18.2804 -71.3011
rradius 26.4954
rwrist 31.8023
rhand -16.6026 -25.9908
rfingers 7.12502
rthumb 9.61877 -55.7513
lclavicle -2.38542e-015 -3.97569e-016
lhumerus -31.1122 0.203402 83.3521
lradius 20.8196
lwrist 8.54133
lhand -24.903 -2.52362
lfingers 7.12502
lthumb 1.60529 27.4501
rfemur -32.6707 -1.48727 20.244
rtibia 38.0149
rfoot -18.63 -5.72264
rtoes 3.25196
lfemur -32.8931 9.07671 -19.4706
ltibia 38.0336
lfoot -16.7869 9.36024
ltoes -2.45439
86
root 0.584084 17.0701 -15.0916 11.9128 -1.98642 -2.1574
lowerback 5.86401 -0.47096 0.0407177
upperback 6.51686 -0.674094 1.92719
thorax 3.46889 -0.38535 1.98557
lowerneck -14.232 1.25167 -1.11594
upperneck 25.3247 2.19139 -0.59705
head 10.4517 0.816316 0.261647
rclavicle 2.08724e-015 -4.37326e-015
rhumerus -34.1427 -18.5029 -71.0578
rradius 26.4223
rwrist 31.8459
rhand -16.4786 -25.9453
rfingers 7.12502
rthumb 9.73847 -55.7001
lclavicle 2.08724e-015 -4.37326e-015
lhumerus -31.4362 0.413866 83.257
lradius 20.5926
lwrist 8.26942
lhand -24.9166 -2.61725
lfingers 7.12502
lthumb 1.59208 27.3566
rfemur -32.8853 -1.45583 20.253
rtibia 38.2615
rfoot -18.9072 -5.87758
rtoes 3.05833
lfemur -33.1072 9.09654 -19.4928
ltibia 38.3224
lfoot -17.2416 9.79023
ltoes -2.6827
87
root 0.584436 17.0615 -15.0937 11.9868 -1.99547 -2.1622
lowerback 5.94488 -0.466502 0.0399898
upperback 6.54935 -0.667737 1.92326
thorax 3.45763 -0.382274 1.98244
lowerneck -14.2737 1.25828 -1.09119
upperneck 25.2516 2.20181 -0.62663
head 10.4337 0.820571 0.248304
rclavicle 1.22253e-014 -1.43125e-014
rhumerus -34.4914 -18.7349 -70.8162
rradius 26.3398
rwrist 31.921
rhand -16.3604 -25.9271
rfingers 7.12502
rthumb 9.85244 -55.6766
lclavicle 1.22253e-014 -1.43125e-014
lhumerus -31.7288 0.640869 83.1604
lradius 20.3509
lwrist 7.96587
lhand -24.8871 -2.63096
lfingers 7.12502
lthumb 1.62058 27.3426
rfemur -33.085 -1.43317 20.2652
rtibia 38.4954
rfoot -19.1881 -6.02812
rtoes 2.9588
lfemur -33.3102 9.11204 -19.5155
ltibia 38.5929
lfoot -17.7275 10.15
ltoes -2.98614
88
root 0.584776 17.0538 -15.0948 12.0582 -1.99013 -2.16384
lowerback 6.02888 -0.466916 0.038323
upperback 6.58137 -0.667857 1.92155
thorax 3.44444 -0.382506 1.98235
lowerneck -14.3225 1.26624 -1.07191
upperneck 25.1825 2.21323 -0.647046
head 10.4184 0.825755 0.23936
rclavicle -9.64106e-015 -4.17448e-015
rhumerus -34.8309 -18.9798 -70.5699
rradius 26.2346
rwrist 32.0814
rhand -16.3357 -25.8841
rfingers 7.12502
rthumb 9.87629 -55.6324
lclavicle -9.64106e-015 -4.17448e-015
lhumerus -31.9944 0.885415 83.0605
lradius 20.0974
lwrist 7.63246
lhand -24.8175 -2.58704
lfingers 7.12502
lthumb 1.68779 27.386
rfemur -33.27 -1.42132 20.2767
rtibia 38.7179
rfoot -19.4734 -6.18634
rtoes 2.90442
lfemur -33.5003 9.11107 -19.5391
ltibia 38.8429
lfoot -18.2219 10.4469
ltoes -3.38863
89
root 0.585103 17.0467 -15.0951 12.1269 -1.96964 -2.16122
lowerback 6.12081 -0.472527 0.0353824
upperback 6.60752 -0.674734 1.92217
thorax 3.42098 -0.386135 1.98566
lowerneck -14.3617 1.27427 -1.05814
upperneck 25.1142 2.22511 -0.664324
head 10.4015 0.831037 0.232457
rclavicle 1.51076e-014 -1.2921e-014
rhumerus -35.173 -19.2109 -70.3236
rradius 26.1254
rwrist 32.2608
rhand -16.3732 -25.8208
rfingers 7.12502
rthumb 9.84015 -55.5709
lclavicle 1.51076e-014 -1.2921e-014
lhumerus -32.2524 1.16485 82.9522
lradius 19.8482
lwrist 7.27382
lhand -24.7034 -2.54585
lfingers 7.12502
lthumb 1.79806 27.4263
rfemur -33.4406 -1.4212 20.286
rtibia 38.9308
rfoot -19.7671 -6.35639
rtoes 2.87753
lfemur -33.6763 9.08617 -19.5624
ltibia 39.0738
lfoot -18.7078 10.7101
ltoes -3.85617
90
root 0.585445 17.0403 -15.0945 12.1941 -1.93115 -2.15326
lowerback 6.21672 -0.483912 0.0319416
upperback 6.62972 -0.689166 1.92443
thorax 3.3915 -0.393536 1.99123
lowerneck -14.3989 1.27724 -1.04849
upperneck 25.0473 2.23062 -0.680462
head 10.3846 0.833158 0.225824
rclavicle 9.0447e-015 -1.13307e-014
rhumerus -35.5135 -19.4361 -70.0762
rradius 26.0108
rwrist 32.4694
rhand -16.4584 -25.7448
rfingers 7.12502
rthumb 9.7579 -55.4987
lclavicle 9.0447e-015 -1.13307e-014
lhumerus -32.498 1.4661 82.8381
lradius 19.6076
lwrist 6.89801
lhand -24.5314 -2.46385
lfingers 7.12502
lthumb 1.96411 27.5069
rfemur -33.5998 -1.43476 20.2918
rtibia 39.1353
rfoot -20.0681 -6.53895
rtoes 2.82155
lfemur -33.8399 9.03009 -19.5849
ltibia 39.2876
lfoot -19.159 10.9763
ltoes -4.33432
91
root 0.585741 17.0343 -15.0933 12.2616 -1.87535 -2.14093
lowerback 6.31376 -0.500576 0.0289655
upperback 6.64933 -0.710507 1.92782
thorax 3.35895 -0.404352 1.998
lowerneck -14.4383 1.27489 -1.04176
upperneck 24.9795 2.22882 -0.694314
head 10.3678 0.83194 0.219567
rclavicle -5.46658e-015 -1.19271e-014
rhumerus -35.8401 -19.6564 -69.8356
rradius 25.8955
rwrist 32.6685
rhand -16.5635 -25.654
rfingers 7.12502
rthumb 9.65651 -55.4126
lclavicle -5.46658e-015 -1.19271e-014
lhumerus -32.7231 1.78141 82.7189
lradius 19.374
lwrist 6.5176
lhand -24.3469 -2.39087
lfingers 7.12502
lthumb 2.1423 27.5781
rfemur -33.7515 -1.45956 20.2947
rtibia 39.3322
rfoot -20.3697 -6.73062
rtoes 2.70352
lfemur -33.995 8.94412 -19.6052
ltibia 39.4888
lfoot -19.5729 11.2737
ltoes -4.80596
92
root 0.58594 17.0285 -15.0913 12.3325 -1.80265 -2.12812
lowerback 6.40644 -0.520474 0.0323086
upperback 6.66845 -0.735921 1.93175
thorax 3.32843 -0.416943 2.00194
lowerneck -14.4769 1.26839 -1.04423
upperneck 24.9021 2.21909 -0.69195
head 10.3471 0.828275 0.219538
rclavicle 1.98785e-016 -1.41137e-014
rhumerus -36.1414 -19.87 -69.6165
rradius 25.7987
rwrist 32.7962
rhand -16.5618 -25.6534
rfingers 7.12502
rthumb 9.65818 -55.4119
lclavicle 1.98785e-016 -1.41137e-014
lhumerus -32.9155 2.09147 82.5973
lradius 19.1441
lwrist 6.13236
lhand -24.1284 -2.27862
lfingers 7.12502
lthumb 2.35331 27.6881
rfemur -33.9 -1.49122 20.2982
rtibia 39.5214
rfoot -20.6667 -6.91888
rtoes 2.54955
lfemur -34.1483 8.83136 -19.6202
ltibia 39.6806
lfoot -19.9418 11.6129
ltoes -5.26896
93
root 0.586014 17.023 -15.0887 12.4057 -1.71549 -2.11653
lowerback 6.48852 -0.542269 0.0420671
upperback 6.69039 -0.763795 1.93815
thorax 3.30681 -0.430599 2.00485
lowerneck -14.5186 1.25961 -1.05343
upperneck 24.8196 2.20543 -0.680273
head 10.3249 0.823347 0.223437
rclavicle -9.24349e-015 1.21259e-014
rhumerus -36.4158 -20.0765 -69.4173
rradius 25.7134
rwrist 32.891
rhand -16.5177 -25.6914
rfingers 7.12502
rthumb 9.70072 -55.448
lclavicle -9.24349e-015 1.21259e-014
lhumerus -33.065 2.39099 82.4788
lradius 18.9119
lwrist 5.74905
lhand -23.9714 -2.20779
lfingers 7.12502
lthumb 2.505 27.7572
rfemur -34.0444 -1.52626 20.3038
rtibia 39.7026
rfoot -20.953 -7.09838
rtoes 2.3581
lfemur -34.3005 8.69868 -19.6288
ltibia 39.8663
lfoot -20.2712 11.974
ltoes -5.68848
94
root 0.58599 17.0177 -15.0853 12.4783 -1.61764 -2.10947
lowerback 6.56935 -0.565421 0.0580081
upperback 6.71061 -0.793257 1.9488
thorax 3.28417 -0.444879 2.00881
lowerneck -14.5501 1.2543 -1.06976
upperneck 24.7313 2.19589 -0.659706
head 10.2984 0.820801 0.232101
rclavicle -5.06901e-015 7.15625e-015
rhumerus -36.6733 -20.2663 -69.2337
rradius 25.6388
rwrist 32.9578
rhand -16.4353 -25.7511
rfingers 7.12502
rthumb 9.78021 -55.504
lclavicle -5.06901e-015 7.15625e-015
lhumerus -33.1875 2.68551 82.3644
lradius 18.6848
lwrist 5.37916
lhand -23.8819 -2.2012
lfingers 7.12502
lthumb 2.59142 27.7628
rfemur -34.181 -1.55982 20.3141
rtibia 39.8757
rfoot -21.232 -7.26335
rtoes 2.17565
lfemur -34.4492 8.55563 -19.6299
ltibia 40.0471
lfoot -20.5712 12.3388
ltoes -6.06499
95
root 0.585903 17.0124 -15.081 12.5506 -1.50961 -2.10931
lowerback 6.64495 -0.589231 0.0829197
upperback 6.72858 -0.823311 1.96442
thorax 3.26204 -0.459192 2.01291
lowerneck -14.5668 1.25289 -1.08957
upperneck 24.6409 2.19167 -0.636207
head 10.2682 0.820816 0.242938
rclavicle -1.63997e-014 -1.2921e-014
rhumerus -36.9203 -20.4386 -69.0614
rradius 25.5744
rwrist 32.9957
rhand -16.3313 -25.7983
rfingers 7.12502
rthumb 9.88053 -55.5464
lclavicle -1.63997e-014 -1.2921e-014
lhumerus -33.286 2.96859 82.2591
lradius 18.4676
lwrist 5.03734
lhand -23.8185 -2.19859
lfingers 7.12502
lthumb 2.65266 27.7647
rfemur -34.3088 -1.5889 20.3307
rtibia 40.0408
rfoot -21.5059 -7.41691
rtoes 2.03278
lfemur -34.5953 8.40654 -19.6218
ltibia 40.2236
lfoot -20.8566 12.6857
ltoes -6.39801
96
root 0.585744 17.0073 -15.0757 12.6203 -1.39373 -2.11724
lowerback 6.72179 -0.612569 0.115255
upperback 6.74106 -0.852384 1.98635
thorax 3.23346 -0.472811 2.01942
lowerneck -14.5794 1.2521 -1.10464
upperneck 24.5618 2.18906 -0.619453
head 10.2415 0.821112 0.250802
rclavicle 1.68967e-015 -2.5842e-015
rhumerus -37.1695 -20.6112 -68.8798
rradius 25.4923
rwrist 33.1103
rhand -16.3292 -25.7182
rfingers 7.12502
rthumb 9.88254 -55.4662
lclavicle 1.68967e-015 -2.5842e-015
lhumerus -33.37 3.23782 82.1668
lradius 18.266
lwrist 4.73762
lhand -23.7585 -2.16323
lfingers 7.12502
lthumb 2.71061 27.7993
rfemur -34.4254 -1.6129 20.355
rtibia 40.1995
rfoot -21.7779 -7.57169
rtoes 1.89532
lfemur -34.7358 8.25362 -19.6028
ltibia 40.3965
lfoot -21.1338 13.0021
ltoes -6.67084
97
root 0.585499 17.0023 -15.0695 12.6887 -1.27238 -2.13258
lowerback 6.79972 -0.634454 0.154402
upperback 6.74864 -0.879158 2.01329
thorax 3.19904 -0.48508 2.0273
lowerneck -14.5769 1.25106 -1.12474
upperneck 24.4798 2.1863 -0.599661
head 10.2108 0.82135 0.260422
rclavicle -9.44227e-015 1.19271e-014
rhumerus -37.4177 -20.7789 -68.6961
rradius 25.401
rwrist 33.2836
rhand -16.3889 -25.5669
rfingers 7.12502
rthumb 9.82493 -55.3177
lclavicle -9.44227e-015 1.19271e-014
lhumerus -33.4443 3.48209 82.0916
lradius 18.0919
lwrist 4.48587
lhand -23.7107 -2.13391
lfingers 7.12502
lthumb 2.75675 27.828
rfemur -34.5326 -1.62957 20.3861
rtibia 40.3544
rfoot -22.0522 -7.73353
rtoes 1.77447
lfemur -34.872 8.09715 -19.5731
ltibia 40.5668
lfoot -21.4082 13.2898
ltoes -6.90688
